<svg width="43" height="43" viewBox="0 0 43 43" fill="none" xmlns="http://www.w3.org/2000/svg">
<path d="M33.5605 0.964417H10.0484C4.85457 0.964417 0.643555 5.051 0.643555 10.0914V32.9087C0.643555 37.949 4.85457 42.0356 10.0484 42.0356H23.2645V26.1525H17.7556V19.9348H23.2645V15.3599C23.2645 10.0571 26.6056 7.16617 31.482 7.16617C33.1255 7.16161 34.7666 7.24375 36.4007 7.40575V12.9504H33.0432C30.3863 12.9504 29.8691 14.1688 29.8691 15.9668V19.9256H36.2173L35.3921 26.1433H29.8314V42.0356H33.5605C38.7543 42.0356 42.9653 37.949 42.9653 32.9087V10.0914C42.9653 5.051 38.7543 0.964417 33.5605 0.964417Z" fill="#262015"/>
</svg>
