<svg width="43" height="43" viewBox="0 0 43 43" fill="none" xmlns="http://www.w3.org/2000/svg">
<path d="M12.6622 0.964417C5.85719 0.964417 0.321777 6.34124 0.321777 12.9469V30.0599C0.321777 36.6638 5.86232 42.0356 12.6691 42.0356H30.3031C37.1081 42.0356 42.6435 36.6588 42.6435 30.0532V12.9402C42.6435 6.33627 37.103 0.964417 30.2962 0.964417H12.6622ZM33.8265 7.80962C34.7999 7.80962 35.5899 8.57628 35.5899 9.52092C35.5899 10.4656 34.7999 11.2322 33.8265 11.2322C32.8531 11.2322 32.0631 10.4656 32.0631 9.52092C32.0631 8.57628 32.8531 7.80962 33.8265 7.80962ZM21.4826 11.2322C27.3178 11.2322 32.0631 15.8373 32.0631 21.5C32.0631 27.1627 27.3178 31.7678 21.4826 31.7678C15.6475 31.7678 10.9022 27.1627 10.9022 21.5C10.9022 15.8373 15.6475 11.2322 21.4826 11.2322ZM21.4826 14.6548C19.6119 14.6548 17.8178 15.376 16.495 16.6597C15.1722 17.9435 14.429 19.6846 14.429 21.5C14.429 23.3155 15.1722 25.0566 16.495 26.3403C17.8178 27.624 19.6119 28.3452 21.4826 28.3452C23.3534 28.3452 25.1475 27.624 26.4703 26.3403C27.7931 25.0566 28.5363 23.3155 28.5363 21.5C28.5363 19.6846 27.7931 17.9435 26.4703 16.6597C25.1475 15.376 23.3534 14.6548 21.4826 14.6548Z" fill="#262015"/>
</svg>
