<svg width="43" height="43" viewBox="0 0 43 43" fill="none" xmlns="http://www.w3.org/2000/svg">
<path d="M37.2834 0.964417H5.0383C2.26018 0.964417 0 3.15781 0 5.85385V37.1462C0 39.8422 2.26018 42.0356 5.0383 42.0356H37.2834C40.0616 42.0356 42.3217 39.8422 42.3217 37.1462V5.85385C42.3217 3.15781 40.0616 0.964417 37.2834 0.964417ZM33.2588 18.8822C33.0301 18.9028 32.7983 18.9164 32.5636 18.9164C29.9205 18.9164 27.5978 17.5973 26.2465 15.6034C26.2465 20.8341 26.2465 26.7855 26.2465 26.8852C26.2465 31.4901 22.3993 35.2237 17.6542 35.2237C12.9091 35.2237 9.06189 31.4901 9.06189 26.8852C9.06189 22.2804 12.9091 18.5468 17.6542 18.5468C17.8336 18.5468 18.0089 18.5625 18.1852 18.5732V22.6823C18.0089 22.6617 17.8356 22.6305 17.6542 22.6305C15.2318 22.6305 13.2689 24.5354 13.2689 26.8862C13.2689 29.2371 15.2318 31.142 17.6542 31.142C20.0766 31.142 22.2159 29.2899 22.2159 26.939C22.2159 26.8461 22.2582 7.77833 22.2582 7.77833H26.305C26.6859 11.2899 29.6071 14.0612 33.2588 14.3155V18.8822Z" fill="#262015"/>
</svg>
