<svg width="100" height="100" viewBox="0 0 100 100" fill="none" xmlns="http://www.w3.org/2000/svg">
<g clip-path="url(#clip0_172_19)">
<path d="M15.97 97V95.65L19.075 94.435C20.605 93.805 21.64 92.995 22.18 92.005C22.81 90.925 23.125 89.485 23.125 87.685V17.215C23.125 15.415 22.855 14.02 22.315 13.03C21.865 11.95 20.785 11.095 19.075 10.465L15.97 9.25001V7.90001H80.635L81.445 28.69H80.095L74.29 16C73.48 14.38 72.625 13.075 71.725 12.085C70.825 11.095 69.475 10.6 67.675 10.6H43.375V49.615H57.82C59.62 49.615 60.97 49.165 61.87 48.265C62.86 47.275 63.715 45.97 64.435 44.35L67.135 38.95H68.485V63.25H67.135L64.435 57.58C63.625 55.96 62.77 54.7 61.87 53.8C60.97 52.81 59.62 52.315 57.82 52.315H43.375V94.3H70.645C72.445 94.3 73.84 93.85 74.83 92.95C75.82 91.96 76.63 90.61 77.26 88.9L82.795 76.21H84.145L83.335 97H15.97Z" fill="#262015"/>
</g>
<defs>
<clipPath id="clip0_172_19">
<rect width="100" height="100" fill="white"/>
</clipPath>
</defs>
</svg>
